<svg width="13" height="13" viewBox="0 0 13 13" fill="none" xmlns="http://www.w3.org/2000/svg">
<path d="M7.86328 0.135742C8.12959 0.192656 8.38945 0.266987 8.64258 0.355469C7.32667 2.11648 5.80114 4.27854 5.05273 5.77734C3.68502 8.51688 4.66542 10.9755 5.9082 12.6787C5.98843 12.7886 6.07 12.8958 6.15234 13C4.17938 12.8959 2.43987 11.9112 1.31836 10.4307C1.54301 10.1936 1.72672 9.93582 1.87402 9.65918C2.27315 8.90915 2.38904 8.06813 2.44336 7.28027C2.50034 6.45322 2.49155 5.72988 2.60352 5.02246C2.71114 4.34305 2.92022 3.78362 3.35352 3.34961C4.2952 2.4067 6.12497 1.19054 7.86328 0.135742ZM9.58398 0.769531C10.7931 1.42328 11.7712 2.45011 12.3662 3.69531C12.3367 3.70969 12.3062 3.72333 12.2764 3.73828C11.085 4.33481 9.62516 5.39787 8.56543 7.25488C7.74268 8.69701 7.76579 10.7199 7.95117 12.2852C7.97319 12.471 7.99894 12.652 8.02539 12.8271C7.82686 12.875 7.62508 12.9142 7.41992 12.9434C7.18249 12.6838 6.94258 12.3992 6.7168 12.0898C5.58493 10.5389 4.81596 8.49112 5.94727 6.22461C6.6501 4.81703 8.12332 2.72192 9.44434 0.954102C9.49075 0.891988 9.53806 0.830697 9.58398 0.769531ZM12.7266 4.63086C12.9038 5.22326 13 5.85083 13 6.50098C13 9.21202 11.3439 11.534 8.99023 12.5127C8.97443 12.3995 8.95823 12.2843 8.94434 12.167C8.76148 10.623 8.78463 8.89038 9.43457 7.75098C10.3747 6.10357 11.6651 5.16286 12.7236 4.63281C12.7246 4.63232 12.7256 4.63135 12.7266 4.63086ZM6.1875 0C4.80536 0.881903 3.45407 1.8349 2.64648 2.64355C2.00627 3.28476 1.74021 4.07707 1.61523 4.86621C1.49474 5.62746 1.49482 6.49224 1.44531 7.21094C1.3931 7.96842 1.28719 8.63329 0.991211 9.18945C0.925089 9.31362 0.846059 9.43297 0.755859 9.5498C0.273422 8.64029 0 7.60262 0 6.50098C6.24606e-06 3.01118 2.74278 0.163286 6.1875 0Z" fill="url(#paint0_linear_20_19)"/>
<defs>
<linearGradient id="paint0_linear_20_19" x1="1.3138e-08" y1="6.00812" x2="13" y2="6.00812" gradientUnits="userSpaceOnUse">
<stop stop-color="#8C52FF"/>
<stop offset="1" stop-color="#00BF63"/>
</linearGradient>
</defs>
</svg>
